HIERARCHY
ROOT Hips
{
 OFFSET 0.000000 0.000000 0.000000
 CHANNELS 6 Xposition Yposition Zposition Yrotation Xrotation Zrotation
 JOINT Chest
 {
  OFFSET 0.000000 9.585900 0.002600
  CHANNELS 3 Yrotation Xrotation Zrotation
  JOINT Chest2
  {
   OFFSET 0.000000 9.601200 -0.005300
   CHANNELS 3 Yrotation Xrotation Zrotation
   JOINT Chest3
   {
    OFFSET 0.000000 9.561800 0.000000
    CHANNELS 3 Yrotation Xrotation Zrotation
    JOINT Chest4
    {
     OFFSET 0.000000 9.552100 0.000000
     CHANNELS 3 Yrotation Xrotation Zrotation
     JOINT Neck
     {
      OFFSET 0.000000 14.453000 0.000000
      CHANNELS 3 Yrotation Xrotation Zrotation
      JOINT Head
      {
       OFFSET 0.000000 8.936500 -0.011300
       CHANNELS 3 Yrotation Xrotation Zrotation
       End Site
       {
        OFFSET 0.000000 17.073600 -0.006000
       }
      }
     }
     JOINT RightCollar
     {
      OFFSET -2.921100 9.558500 0.000000
      CHANNELS 3 Yrotation Xrotation Zrotation
      JOINT RightShoulder
      {
       OFFSET -13.519700 0.000000 0.000000
       CHANNELS 3 Yrotation Xrotation Zrotation
       JOINT RightElbow
       {
        OFFSET 0.000000 -29.696600 0.000000
        CHANNELS 3 Yrotation Xrotation Zrotation
        JOINT RightWrist
        {
         OFFSET 0.000000 -24.004700 0.000000
         CHANNELS 3 Yrotation Xrotation Zrotation
         End Site
         {
          OFFSET 0.000000 -17.728500 0.000000
         }
        }
       }
      }
     }
     JOINT LeftCollar
     {
      OFFSET 2.921100 9.558500 0.000000
      CHANNELS 3 Yrotation Xrotation Zrotation
      JOINT LeftShoulder
      {
       OFFSET 13.519700 0.000000 0.000000
       CHANNELS 3 Yrotation Xrotation Zrotation
       JOINT LeftElbow
       {
        OFFSET 0.000000 -29.696600 0.000000
        CHANNELS 3 Yrotation Xrotation Zrotation
        JOINT LeftWrist
        {
         OFFSET 0.000000 -24.004700 0.000000
         CHANNELS 3 Yrotation Xrotation Zrotation
         End Site
         {
          OFFSET 0.000000 -17.728500 0.000000
         }
        }
       }
      }
     }
    }
   }
  }
 }
 JOINT RightHip
 {
  OFFSET -7.771700 -0.012900 -0.001300
  CHANNELS 3 Yrotation Xrotation Zrotation
  JOINT RightKnee
  {
   OFFSET 0.000000 -40.869800 0.001200
   CHANNELS 3 Yrotation Xrotation Zrotation
   JOINT RightAnkle
   {
    OFFSET 0.000000 -39.717900 0.002100
    CHANNELS 3 Yrotation Xrotation Zrotation
    JOINT RightToe
    {
     OFFSET 0.000000 -4.965400 11.033500
     CHANNELS 3 Yrotation Xrotation Zrotation
     End Site
     {
      OFFSET 0.000000 -1.423100 5.872300
     }
    }
   }
  }
 }
 JOINT LeftHip
 {
  OFFSET 7.771700 -0.012900 -0.001300
  CHANNELS 3 Yrotation Xrotation Zrotation
  JOINT LeftKnee
  {
   OFFSET 0.000000 -40.869800 0.001200
   CHANNELS 3 Yrotation Xrotation Zrotation
   JOINT LeftAnkle
   {
    OFFSET 0.000000 -39.717900 0.002100
    CHANNELS 3 Yrotation Xrotation Zrotation
    JOINT LeftToe
    {
     OFFSET 0.000000 -4.965400 11.033500
     CHANNELS 3 Yrotation Xrotation Zrotation
     End Site
     {
      OFFSET 0.000000 -1.423100 5.872300
     }
    }
   }
  }
 }
}
MOTION
Frames: 12
Frame Time: 0.008333
-161.647604 55.599111 107.380448 -173.549098 -27.407262 -11.293731 -1.113343 11.672909 6.444297 -0.980367 6.817673 2.009173 -1.180248 8.500225 2.493277 -0.972633 6.796270 2.005647 -2.877435 22.336191 -1.959507 -2.673544 -1.743047 -1.432342 1.675675 1.138820 -3.995880 -16.263304 -9.525284 5.432425 -52.620125 -73.276309 74.794716 6.504263 -7.065387 -15.438228 -9.439902 3.173616 -3.444525 3.480653 -4.215164 -2.803742 123.529554 -74.428623 -130.965567 17.914179 -10.553113 0.770960 -23.316876 -35.374798 10.585315 47.380860 84.945060 43.926140 0.529837 -20.564970 -2.240287 -1.217322 2.869762 -0.556412 -16.783327 -49.677055 13.644051 177.449787 80.533948 172.303692 -2.223188 -17.807587 3.054146 -0.115188 -0.530432 -0.058044
-161.645028 55.599145 107.373820 -173.537666 -27.432143 -11.301760 -1.116010 11.691978 6.445687 -0.946572 6.768558 2.001501 -1.199416 8.519074 2.496681 -0.969551 6.792659 2.004267 -2.899310 22.539427 -1.951442 -2.715521 -1.514016 -1.417504 1.689568 1.192187 -3.963924 -16.141898 -9.608552 5.464839 -52.790482 -71.969661 74.774778 6.233500 -6.956649 -15.840135 -9.469289 3.296931 -3.420120 3.351700 -4.367747 -2.913040 122.976987 -74.604516 -130.146876 17.941530 -10.699239 1.010957 -23.316190 -35.352019 10.578494 47.451199 84.960358 44.000042 0.541425 -20.581744 -2.242873 -1.223398 2.873809 -0.559379 -16.824109 -49.655094 13.637487 177.473446 80.515484 172.326888 -2.196385 -17.811978 3.040558 -0.109702 -0.536221 -0.069222
-161.643553 55.599103 107.367259 -173.524189 -27.465016 -11.309826 -1.107625 11.701682 6.446963 -0.934831 6.774558 2.003757 -1.157801 8.493763 2.493416 -1.003950 6.800161 2.010340 -2.919124 22.751553 -1.940368 -2.754698 -1.283858 -1.402290 1.726976 1.259212 -3.916518 -16.054773 -9.682890 5.478798 -53.133764 -70.651192 74.943098 5.944142 -6.866312 -16.279381 -9.504301 3.342003 -3.409053 3.201935 -4.445772 -3.001480 122.172962 -74.677297 -129.103373 17.932999 -10.786020 1.352662 -23.316911 -35.321964 10.568220 47.524752 84.977320 44.073168 0.553468 -20.597127 -2.244286 -1.230781 2.875900 -0.561570 -16.834624 -49.626511 13.622185 177.501005 80.498969 172.353430 -2.181155 -17.820626 3.035633 -0.120457 -0.536418 -0.065063
-161.641950 55.597600 107.364082 -173.523965 -27.486314 -11.315881 -1.069901 11.690309 6.458627 -0.947388 6.794497 2.007238 -1.135735 8.502108 2.500605 -1.001197 6.782575 2.001055 -2.937439 22.971330 -1.920839 -2.791142 -1.050466 -1.388484 1.799453 1.371357 -3.846725 -16.025887 -9.789491 5.480706 -53.574168 -69.364174 75.226581 5.632523 -6.785857 -16.769546 -9.550928 3.418555 -3.387806 3.039952 -4.564536 -3.099815 121.122129 -74.624789 -127.851470 17.889499 -10.800252 1.777904 -23.318630 -35.304855 10.570394 47.605784 84.987792 44.151054 0.571548 -20.611483 -2.247879 -1.241580 2.882863 -0.564382 -16.837392 -49.612623 13.618614 177.557320 80.483354 172.409407 -2.168363 -17.828450 3.036200 -0.121881 -0.536068 -0.065038
-161.643776 55.596242 107.360675 -173.516235 -27.518398 -11.310078 -1.067593 11.718506 6.450582 -0.944866 6.796150 2.007975 -1.096414 8.519287 2.517329 -0.948313 6.800298 2.010459 -3.001496 23.168940 -1.910278 -2.822193 -0.803540 -1.375670 1.761959 1.404944 -3.829260 -15.959060 -9.840168 5.497067 -54.032841 -68.166076 75.551273 5.321046 -6.703220 -17.317056 -9.641192 3.508247 -3.366698 2.867261 -4.743754 -3.215035 119.891423 -74.455349 -126.463841 17.831864 -10.736552 2.263199 -23.307055 -35.288887 10.549831 47.678845 85.013165 44.225041 0.576391 -20.616703 -2.251005 -1.235556 2.875766 -0.560297 -16.831938 -49.589826 13.586962 177.531580 80.470457 172.381420 -2.174188 -17.830358 3.042845 -0.107688 -0.539148 -0.073951
-161.647009 55.594342 107.359319 -173.506890 -27.546688 -11.299937 -1.054324 11.735246 6.447512 -0.931932 6.807609 2.014435 -1.086285 8.541627 2.530681 -0.920621 6.821019 2.022990 -3.035434 23.387914 -1.901416 -2.846706 -0.530533 -1.361661 1.744881 1.446402 -3.821734 -15.915809 -9.890307 5.510882 -54.438761 -67.125037 75.848299 5.033440 -6.610596 -17.930480 -9.700965 3.560726 -3.361735 2.702357 -4.894374 -3.329013 118.577302 -74.193988 -125.040544 17.778428 -10.593831 2.791041 -23.288492 -35.278447 10.526562 47.743334 85.036128 44.292023 0.565142 -20.628430 -2.257479 -1.230090 2.875406 -0.547494 -16.829407 -49.572583 13.541737 177.439739 80.458772 172.291298 -2.167283 -17.829970 3.032731 -0.109634 -0.540261 -0.074187
-161.649513 55.593309 107.358402 -173.500937 -27.583088 -11.296807 -1.040543 11.766246 6.451476 -0.920539 6.820657 2.022909 -1.067872 8.562674 2.547143 -0.908936 6.836117 2.032222 -3.051877 23.635380 -1.887343 -2.871105 -0.232202 -1.344855 1.752459 1.522103 -3.804947 -15.913519 -9.961187 5.519758 -54.749938 -66.295712 76.067683 4.771889 -6.503234 -18.603777 -9.750635 3.551177 -3.369957 2.568679 -4.980991 -3.440580 117.264177 -73.871085 -123.666924 17.733042 -10.383662 3.352598 -23.266728 -35.256320 10.511552 47.793917 85.052729 44.336326 0.564109 -20.636275 -2.247492 -1.234001 2.871496 -0.551183 -16.816067 -49.546255 13.501104 177.400164 80.448903 172.258780 -2.161184 -17.832043 3.027482 -0.108361 -0.539562 -0.074953
-161.651854 55.593232 107.357831 -173.500043 -27.628666 -11.296263 -1.001474 11.798110 6.484430 -0.926210 6.840159 2.016280 -1.075921 8.567766 2.544977 -0.871261 6.874881 2.057662 -3.071497 23.892312 -1.872669 -2.899326 0.078872 -1.326702 1.733179 1.577521 -3.798164 -15.930782 -10.046436 5.520870 -54.888234 -65.658183 76.129673 4.538928 -6.388944 -19.308375 -9.787136 3.608240 -3.363657 2.450490 -5.140640 -3.580452 115.988915 -73.514866 -122.380004 17.696593 -10.126419 3.928285 -23.233801 -35.226174 10.493160 47.814709 85.067952 44.360641 0.558869 -20.636179 -2.243631 -1.231048 2.865939 -0.547721 -16.797375 -49.509312 13.463157 177.420733 80.440934 172.285240 -2.140347 -17.834697 3.019903 -0.113342 -0.539337 -0.073266
-161.654482 55.593537 107.358650 -173.497136 -27.675000 -11.297918 -0.981191 11.836379 6.503733 -0.883894 6.874692 2.054291 -1.115790 8.554903 2.514755 -0.834669 6.920228 2.087740 -3.092038 24.148596 -1.858970 -2.928370 0.390438 -1.309394 1.703213 1.629625 -3.795497 -15.941640 -10.134756 5.519996 -54.937328 -65.210450 76.085126 4.349212 -6.300290 -19.993768 -9.825609 3.663182 -3.358030 2.369801 -5.304323 -3.724152 114.789621 -73.148436 -121.208712 17.672743 -9.843687 4.475269 -23.203381 -35.191872 10.473645 47.813886 85.079921 44.364223 0.554293 -20.641541 -2.242451 -1.229767 2.867938 -0.543696 -16.779519 -49.470928 13.431486 177.417104 80.435138 172.283409 -2.131611 -17.835633 3.018933 -0.121703 -0.537979 -0.065571
-161.657178 55.594845 107.359808 -173.487125 -27.728326 -11.306033 -0.969121 11.885242 6.522811 -0.869823 6.895795 2.071639 -1.065391 8.614355 2.560171 -0.862068 6.910765 2.076495 -3.109954 24.397661 -1.846337 -2.954291 0.694386 -1.293794 1.672600 1.676569 -3.799087 -15.933441 -10.182824 5.528001 -54.984076 -64.933340 76.019359 4.212060 -6.280045 -20.604198 -9.870747 3.635102 -3.374982 2.339576 -5.374195 -3.792584 113.672211 -72.748903 -120.149737 17.660061 -9.566689 4.953576 -23.166844 -35.147943 10.449345 47.759068 85.089299 44.322828 0.541262 -20.645339 -2.243166 -1.217110 2.867430 -0.536816 -16.767248 -49.423177 13.400289 177.366442 80.430114 172.235689 -2.131069 -17.836977 3.021385 -0.119473 -0.535917 -0.066756
-161.661643 55.594860 107.364924 -173.471885 -27.764113 -11.306842 -0.973644 11.921463 6.521627 -0.852982 6.915063 2.099908 -1.044495 8.658089 2.588810 -0.884976 6.882896 2.050983 -3.093421 24.679721 -1.806721 -2.974202 0.988151 -1.279908 1.664157 1.765421 -3.781599 -15.921727 -10.237815 5.539776 -54.989579 -64.733679 75.904681 4.126921 -6.346115 -21.097119 -9.870241 3.737670 -3.359402 2.295508 -5.532013 -3.880691 112.712250 -72.410317 -119.241733 17.653816 -9.320808 5.347708 -23.156351 -35.119767 10.429968 47.724786 85.095931 44.281807 0.544265 -20.659600 -2.240405 -1.225700 2.880165 -0.536099 -16.761135 -49.397852 13.359386 177.317027 80.429096 172.190202 -2.122161 -17.827770 3.017751 -0.116346 -0.536347 -0.067107
-161.665186 55.594706 107.372619 -173.465204 -27.793791 -11.311156 -0.962348 11.942286 6.543637 -0.858480 6.932096 2.097555 -1.028739 8.701907 2.622711 -0.867845 6.929214 2.079332 -3.116369 24.890488 -1.806366 -2.988247 1.272248 -1.266117 1.628553 1.800000 -3.810043 -15.865208 -10.217458 5.578206 -55.147802 -64.646746 75.918148 4.088638 -6.481123 -21.463741 -9.886902 3.778936 -3.377517 2.227706 -5.703385 -4.012217 112.006335 -72.202175 -118.551926 17.642931 -9.108306 5.670824 -23.135773 -35.098557 10.423896 47.584964 85.105605 44.136184 0.552320 -20.665426 -2.228196 -1.241127 2.889676 -0.538942 -16.750241 -49.380668 13.324937 177.235399 80.427883 172.120932 -2.113447 -17.816583 3.013392 -0.113503 -0.537307 -0.071805
